<svg width="108" height="32" viewBox="0 0 108 32" fill="none" xmlns="http://www.w3.org/2000/svg">
<mask id="mask0_11_16" style="mask-type:luminance" maskUnits="userSpaceOnUse" x="0" y="0" width="108" height="32">
<path d="M107.965 0H0V32H107.965V0Z" fill="white"/>
</mask>
<g mask="url(#mask0_11_16)">
<path fill-rule="evenodd" clip-rule="evenodd" d="M66.9792 25.0249C60.705 29.5734 51.6113 32 43.7818 32C32.8033 32 22.9199 28.0065 15.4429 21.3642C14.8555 20.8419 15.3818 20.13 16.0868 20.5368C24.1561 25.1545 34.1334 27.9325 44.4397 27.9325C51.3904 27.9325 59.0367 26.518 66.0673 23.5829C67.1295 23.1391 68.0176 24.2669 66.9792 25.0249Z" fill="#FF9900"/>
<path fill-rule="evenodd" clip-rule="evenodd" d="M69.5875 22.0899C68.7885 21.0822 64.2862 21.6138 62.2654 21.8495C61.6497 21.9235 61.5557 21.3966 62.1104 21.0175C65.6961 18.5354 71.58 19.2518 72.2662 20.0838C72.9524 20.9205 72.0877 26.7214 68.718 29.49C68.2011 29.9154 67.7076 29.6889 67.9379 29.1249C68.6945 27.2669 70.3911 23.1023 69.5875 22.0899Z" fill="#FF9900"/>
<path fill-rule="evenodd" clip-rule="evenodd" d="M62.4064 3.49441V1.08157C62.4064 0.716416 62.6883 0.471436 63.0268 0.471436H74.0098C74.3623 0.471436 74.6443 0.721038 74.6443 1.08157V3.14774C74.6395 3.49441 74.3433 3.94738 73.8171 4.66383L68.1258 12.6557C70.2407 12.6049 72.473 12.9146 74.3903 13.9777C74.8228 14.2181 74.9402 14.5694 74.9732 14.916V17.4906C74.9732 17.8419 74.5783 18.2533 74.1648 18.0407C70.7859 16.2981 66.2975 16.1086 62.5614 18.0592C62.1807 18.2626 61.7812 17.8558 61.7812 17.5045V15.0593C61.7812 14.6664 61.7859 13.9962 62.1854 13.3999L68.7791 4.09992H63.0408C62.6883 4.09992 62.4064 3.85494 62.4064 3.49441Z" fill="white"/>
<path fill-rule="evenodd" clip-rule="evenodd" d="M22.342 18.5491H19.0006C18.681 18.526 18.4272 18.2903 18.4037 17.9898V1.12318C18.4037 0.785753 18.6904 0.517658 19.0476 0.517658H22.1635C22.4877 0.531516 22.7462 0.776505 22.7697 1.08158V3.28641H22.8307C23.6439 1.15553 25.1712 0.161743 27.2296 0.161743C29.3211 0.161743 30.6275 1.15553 31.5674 3.28641C32.3758 1.15553 34.2134 0.161743 36.1825 0.161743C37.5829 0.161743 39.115 0.730282 40.0502 2.00603C41.1076 3.42507 40.8916 5.48661 40.8916 7.29392L40.8868 17.939C40.8868 18.2764 40.6001 18.5491 40.2429 18.5491H36.9062C36.5725 18.526 36.3047 18.2626 36.3047 17.939V8.99952C36.3047 8.2877 36.3705 6.51274 36.2107 5.8379C35.9615 4.70543 35.2143 4.3865 34.2462 4.3865C33.438 4.3865 32.5918 4.91805 32.2489 5.76856C31.9059 6.61905 31.9386 8.04272 31.9386 8.99952V17.939C31.9386 18.2764 31.6519 18.5491 31.2949 18.5491H27.958C27.6198 18.526 27.3565 18.2626 27.3565 17.939L27.3518 8.99952C27.3518 7.11825 27.6668 4.34952 25.2935 4.34952C22.8919 4.34952 22.9859 7.04892 22.9859 8.99952V17.939C22.9859 18.2764 22.6992 18.5491 22.342 18.5491Z" fill="white"/>
<path fill-rule="evenodd" clip-rule="evenodd" d="M84.0999 0.161743C89.058 0.161743 91.7415 4.34952 91.7415 9.67438C91.7415 14.819 88.776 18.9004 84.0999 18.9004C79.2311 18.9004 76.5804 14.7127 76.5804 9.4941C76.5804 4.24321 79.2639 0.161743 84.0999 0.161743ZM84.1282 3.60534C81.6654 3.60534 81.5104 6.90563 81.5104 8.96254C81.5104 11.0241 81.4774 15.4245 84.0999 15.4245C86.6894 15.4245 86.8117 11.8746 86.8117 9.71136C86.8117 8.2877 86.7504 6.5867 86.3135 5.23699C85.9375 4.06294 85.1901 3.60534 84.1282 3.60534Z" fill="white"/>
<path fill-rule="evenodd" clip-rule="evenodd" d="M98.1706 18.5491H94.8432C94.5095 18.526 94.2417 18.2626 94.2417 17.939L94.237 1.06771C94.2652 0.758016 94.5425 0.517658 94.8809 0.517658H97.9779C98.2694 0.531516 98.5089 0.725662 98.5749 0.989131V3.56836H98.6359C99.571 1.26184 100.882 0.161743 103.19 0.161743C104.689 0.161743 106.151 0.693304 107.091 2.14932C107.965 3.49903 107.965 5.76856 107.965 7.40021V18.0176C107.927 18.3134 107.65 18.5491 107.321 18.5491H103.97C103.664 18.526 103.411 18.3042 103.378 18.0176V8.85623C103.378 7.01194 103.594 4.31254 101.286 4.31254C100.473 4.31254 99.7262 4.84872 99.3548 5.66225C98.8848 6.69301 98.8238 7.71916 98.8238 8.85623V17.939C98.8191 18.2764 98.5279 18.5491 98.1706 18.5491Z" fill="white"/>
<path fill-rule="evenodd" clip-rule="evenodd" d="M53.6509 10.4926C53.6509 11.7729 53.6839 12.8407 53.026 13.9778C52.495 14.9022 51.6489 15.4707 50.7137 15.4707C49.4308 15.4707 48.6789 14.5093 48.6789 13.0903C48.6789 10.2892 51.2306 9.78073 53.6509 9.78073V10.4926ZM57.0206 18.503C56.7999 18.6971 56.4802 18.711 56.2312 18.5815C55.122 17.6756 54.9198 17.2549 54.3136 16.3906C52.4808 18.2302 51.1789 18.7803 48.8056 18.7803C45.9906 18.7803 43.8053 17.0747 43.8053 13.6588C43.8053 10.9918 45.2717 9.1752 47.3675 8.28773C49.1816 7.50193 51.7148 7.36329 53.6509 7.14602V6.72078C53.6509 5.93962 53.7122 5.01515 53.2422 4.34031C52.838 3.7348 52.0578 3.4852 51.3669 3.4852C50.0935 3.4852 48.9608 4.12769 48.6836 5.45891C48.6271 5.75473 48.4061 6.04593 48.1007 6.0598L44.8627 5.71775C44.5902 5.65767 44.2847 5.44042 44.3645 5.02902C45.1072 1.16481 48.6601 0 51.8368 0C53.4629 0 55.5872 0.425251 56.8704 1.63628C58.4962 3.12927 58.3412 5.12147 58.3412 7.28931V12.4108C58.3412 13.95 58.9897 14.6249 59.6006 15.4569C59.8121 15.7527 59.8591 16.1086 59.5866 16.3305C58.9052 16.8898 57.6926 17.9298 57.0254 18.5122L57.0206 18.503Z" fill="white"/>
<path fill-rule="evenodd" clip-rule="evenodd" d="M9.84574 10.4926C9.84574 11.7729 9.87861 12.8407 9.22067 13.9778C8.68962 14.9022 7.84839 15.4707 6.90845 15.4707C5.62544 15.4707 4.87821 14.5093 4.87821 13.0903C4.87821 10.2892 7.43011 9.78073 9.84574 9.78073V10.4926ZM13.2154 18.503C12.9945 18.6971 12.6749 18.711 12.4258 18.5815C11.3167 17.6756 11.1193 17.2549 10.5084 16.3906C8.67552 18.2302 7.37841 18.7803 5.0004 18.7803C2.19002 18.7803 0 17.0747 0 13.6588C0 10.9918 1.47098 9.17522 3.56233 8.28773C5.37637 7.50195 7.90949 7.36328 9.84574 7.14604V6.72077C9.84574 5.93962 9.90683 5.01515 9.44155 4.34031C9.03269 3.7348 8.25256 3.4852 7.56639 3.4852C6.29281 3.4852 5.15549 4.12769 4.87821 5.45891C4.82182 5.75473 4.60094 6.04593 4.30016 6.0598L1.05742 5.71775C0.784837 5.65766 0.484061 5.44042 0.559255 5.02904C1.3065 1.16482 4.85471 0 8.03168 0C9.65773 0 11.782 0.42525 13.065 1.63628C14.6911 3.12929 14.5359 5.12149 14.5359 7.28933V12.4108C14.5359 13.95 15.1845 14.6249 15.7955 15.4569C16.0116 15.7527 16.0586 16.1086 15.7861 16.3305C15.1046 16.8898 13.8921 17.9298 13.2248 18.5122L13.2154 18.503Z" fill="white"/>
</g>
</svg>
