<svg width="30" height="30" viewBox="0 0 30 30" fill="none" xmlns="http://www.w3.org/2000/svg">
<path fill-rule="evenodd" clip-rule="evenodd" d="M9.0625 12.5C9.0625 10.9253 9.68806 9.41505 10.8016 8.30155C11.9151 7.18806 13.4253 6.5625 15 6.5625C16.5747 6.5625 18.0849 7.18806 19.1984 8.30155C20.3119 9.41505 20.9375 10.9253 20.9375 12.5C20.9375 14.0747 20.3119 15.5849 19.1984 16.6984C18.0849 17.8119 16.5747 18.4375 15 18.4375C13.4253 18.4375 11.9151 17.8119 10.8016 16.6984C9.68806 15.5849 9.0625 14.0747 9.0625 12.5ZM15 8.4375C13.9226 8.4375 12.8892 8.86551 12.1274 9.62738C11.3655 10.3892 10.9375 11.4226 10.9375 12.5C10.9375 13.5774 11.3655 14.6108 12.1274 15.3726C12.8892 16.1345 13.9226 16.5625 15 16.5625C16.0774 16.5625 17.1108 16.1345 17.8726 15.3726C18.6345 14.6108 19.0625 13.5774 19.0625 12.5C19.0625 11.4226 18.6345 10.3892 17.8726 9.62738C17.1108 8.86551 16.0774 8.4375 15 8.4375Z" fill="#E6E6E6"/>
<path fill-rule="evenodd" clip-rule="evenodd" d="M4.405 11.0713C4.61922 8.47997 5.79977 6.06391 7.71238 4.3025C9.62499 2.54109 12.1299 1.56307 14.73 1.5625H15.27C17.8701 1.56307 20.375 2.54109 22.2876 4.3025C24.2002 6.06391 25.3808 8.47997 25.595 11.0713C25.8333 13.9579 24.9415 16.8243 23.1075 19.0662L17.1163 26.3925C16.8599 26.706 16.537 26.9587 16.171 27.1322C15.805 27.3057 15.405 27.3957 15 27.3957C14.595 27.3957 14.195 27.3057 13.829 27.1322C13.463 26.9587 13.1402 26.706 12.8838 26.3925L6.8925 19.0662C5.05855 16.8243 4.16671 13.9579 4.405 11.0713ZM14.73 3.4375C12.6008 3.4384 10.5497 4.23956 8.98351 5.68206C7.41737 7.12456 6.45061 9.10302 6.275 11.225C6.0766 13.6274 6.81876 16.0129 8.345 17.8787L14.3363 25.2063C14.4168 25.3048 14.5182 25.3843 14.6333 25.4388C14.7483 25.4934 14.874 25.5217 15.0013 25.5217C15.1285 25.5217 15.2542 25.4934 15.3693 25.4388C15.4843 25.3843 15.5857 25.3048 15.6663 25.2063L21.6575 17.8787C23.1829 16.0125 23.9241 13.627 23.725 11.225C23.5494 9.10281 22.5824 7.12417 21.016 5.68164C19.4496 4.2391 17.3982 3.43809 15.2688 3.4375H14.73Z" fill="#E6E6E6"/>
</svg>
