<svg width="30" height="30" viewBox="0 0 30 30" fill="none" xmlns="http://www.w3.org/2000/svg">
<path d="M26.25 12.1875H24.375V10.3125C24.375 7.6875 22.3125 5.625 19.6875 5.625H16.875V3.75H19.6875C23.3438 3.75 26.25 6.65625 26.25 10.3125V12.1875ZM20.625 18.75H23.4375V20.625H20.625V18.75ZM20.625 22.5H23.4375V24.375H20.625V22.5Z" fill="#E6E6E6"/>
<path d="M25.3125 28.125H20.625V26.25H25.3125V16.875H18.75V25.3125C18.75 26.9062 17.5312 28.125 15.9375 28.125C14.3438 28.125 13.125 26.9062 13.125 25.3125V22.5H15V25.3125C15 25.875 15.375 26.25 15.9375 26.25C16.5 26.25 16.875 25.875 16.875 25.3125V15H27.1875V26.25C27.1875 27.2812 26.3438 28.125 25.3125 28.125ZM11.25 26.25H10.3125C6.65625 26.25 3.75 23.3438 3.75 19.6875V15.9375H5.625V19.6875C5.625 22.3125 7.6875 24.375 10.3125 24.375H11.25V26.25ZM10.3125 9.375V11.25H13.125C14.1562 11.25 15 10.4062 15 9.375V3.75C15 2.71875 14.1562 1.875 13.125 1.875H3.75C2.71875 1.875 1.875 2.71875 1.875 3.75V9.375C1.875 10.4062 2.71875 11.25 3.75 11.25H6L7.59375 14.0625L9.1875 13.125L7.03125 9.375H3.75V3.75H13.125V9.375H10.3125Z" fill="#E6E6E6"/>
</svg>
