<svg width="30" height="30" viewBox="0 0 30 30" fill="none" xmlns="http://www.w3.org/2000/svg">
<path d="M26.6555 25.0781C24.7195 21.7313 21.6164 19.4461 18.0211 18.6223C19.7295 17.9223 21.1419 16.6509 22.0169 15.0251C22.8919 13.3994 23.1753 11.5203 22.8186 9.70884C22.4619 7.89737 21.4873 6.26597 20.0613 5.09334C18.6352 3.92072 16.8463 3.27964 15 3.27964C13.1538 3.27964 11.3648 3.92072 9.93875 5.09334C8.51271 6.26597 7.53808 7.89737 7.18139 9.70884C6.8247 11.5203 7.10807 13.3994 7.98309 15.0251C8.85811 16.6509 10.2705 17.9223 11.9789 18.6223C8.38829 19.4426 5.28047 21.7313 3.34454 25.0781C3.2885 25.1853 3.27601 25.3099 3.3097 25.426C3.34339 25.5421 3.42063 25.6407 3.52531 25.7012C3.62998 25.7617 3.75398 25.7795 3.87141 25.7507C3.98884 25.7219 4.09061 25.6489 4.15547 25.5469C6.44532 21.5848 10.5023 19.2188 15 19.2188C19.4977 19.2188 23.5547 21.5848 25.8445 25.5469C25.8856 25.6181 25.9447 25.6772 26.0159 25.7183C26.0871 25.7595 26.1678 25.7812 26.25 25.7812C26.3324 25.7815 26.4133 25.7596 26.4844 25.718C26.5918 25.6557 26.6702 25.5534 26.7023 25.4334C26.7344 25.3135 26.7175 25.1857 26.6555 25.0781ZM7.96876 11.25C7.96876 9.85935 8.38113 8.49993 9.15373 7.34365C9.92634 6.18736 11.0245 5.28615 12.3093 4.75397C13.5941 4.22179 15.0078 4.08255 16.3717 4.35385C17.7357 4.62515 18.9885 5.29482 19.9718 6.27815C20.9552 7.26149 21.6248 8.51434 21.8962 9.87827C22.1675 11.2422 22.0282 12.6559 21.496 13.9407C20.9639 15.2255 20.0626 16.3237 18.9064 17.0963C17.7501 17.8689 16.3907 18.2812 15 18.2812C13.1359 18.2791 11.3487 17.5376 10.0306 16.2194C8.71241 14.9013 7.97093 13.1141 7.96876 11.25Z" fill="#E6E6E6"/>
</svg>
